<svg width="134" height="21" fill="none" xmlns="http://www.w3.org/2000/svg"><path d="M15.0781 1.78125V3.5l-1.5234.29297V16h-2.8418L4.9707 6.42969l-.05859.00976V13.998l1.52344.293V16H.546875v-1.709l1.513675-.293V3.79297L.546875 3.5V1.78125H4.91211l5.74219 9.57035.0586-.0098V3.79297L9.18945 3.5V1.78125h5.88865zM21.123 16.2051c-1.5234 0-2.7408-.4883-3.6523-1.4649-.9115-.9765-1.3672-2.2168-1.3672-3.7207v-.3906c0-1.569.4297-2.86132 1.2891-3.87695.8659-1.01562 2.0247-1.52018 3.4765-1.51367 1.4258 0 2.5326.42969 3.3204 1.28906.7877.85938 1.1816 2.02149 1.1816 3.48636v1.5527h-6.3086l-.0195.0586c.0521.6966.2832 1.2695.6933 1.7188.4167.4492.9798.6738 1.6895.6738.6315 0 1.1556-.0619 1.5722-.1856.4167-.1302.8724-.332 1.3672-.6054l.7715 1.7578c-.4362.345-1.0026.6347-1.6992.8691-.6901.2344-1.4616.3516-2.3145.3516zm-.2539-8.76955c-.5273 0-.944.20182-1.25.60547-.3059.40364-.4948.93424-.5664 1.59179l.0293.04883h3.4961v-.25391c0-.60546-.1432-1.08724-.4297-1.44531-.2799-.36458-.7063-.54687-1.2793-.54687zm20.918-.28321l-1.0644.13672L38.5156 16h-2.3828l-1.9629-6.28906h-.0586L32.1484 16h-2.373l-2.2168-8.71094-1.0645-.13672V5.43359h4.7852v1.71875l-1.1231.21485.9961 4.83401h.0586l1.9727-6.76761h1.9141l1.9921 6.78711h.0586l.9864-4.84375-1.1328-.22461V5.43359h4.7851v1.71875zm9.5996 1.91407h-1.914l-.3028-1.31836c-.1953-.15625-.4427-.28646-.7422-.39063-.2929-.10416-.6185-.15625-.9765-.15625-.5013 0-.8985.11393-1.1914.3418-.293.22135-.4395.5013-.4395.83984 0 .31901.14.58594.4199.80078.28.20834.8399.39388 1.6797.55664 1.3086.26047 2.2787.64457 2.9102 1.15237.6315.5013.9472 1.1946.9472 2.0801 0 .9505-.4101 1.7285-1.2304 2.3339-.8138.599-1.888.8985-3.2227.8985-.8138 0-1.5625-.1172-2.2461-.3516-.6771-.2409-1.2793-.5827-1.8066-1.0254l-.0293-2.373h1.9922l.3906 1.3769c.1693.1433.4004.2507.6934.3223.2929.0651.5989.0977.9179.0977.5795 0 1.0189-.1042 1.3184-.3125.306-.2084.459-.4916.459-.8497 0-.3125-.153-.5826-.459-.8105-.306-.2279-.8692-.4297-1.6895-.6055-1.2435-.2539-2.1842-.6282-2.8222-1.123-.6315-.5013-.9473-1.18166-.9473-2.04103 0-.88542.3646-1.64714 1.0938-2.28516.7291-.64453 1.7675-.9668 3.1152-.9668.8203 0 1.595.11068 2.3242.33203.7357.22136 1.3119.50456 1.7285.84961l.0293 2.62696zM62.168 9.75h-4.8145v4.0625h4.5899l.1269-1.6992h2.168V16h-11.25v-1.709l1.5137-.293V3.79297L52.9883 3.5V1.78125h11.2305v3.89648h-2.1876l-.1269-1.69921h-4.5508v3.57421h4.8145V9.75zm3.3593 4.541l.9864-.1562 2.8711-3.4766-2.7735-3.33984-.9863-.16602V5.43359h4.7559v1.65039l-.9668.11719 1.6015 2.03125 1.5723-2.03125-.9863-.11719V5.43359h4.7754v1.71875l-.9571.16602-2.7148 3.33984 2.8613 3.4766.9961.1562V16h-4.834v-1.6406l.9668-.1172-1.6406-2.1289-1.6699 2.1387.8496.1074V16h-4.7071v-1.709zm11.7286-7.13866V5.43359h4.1406l.1367 1.23047c.3125-.45573.6869-.80729 1.123-1.05468.4362-.2474.9441-.3711 1.5235-.3711 1.3086 0 2.3242.51107 3.0469 1.5332.7226 1.02214 1.0839 2.36654 1.0839 4.03322v.2051c0 1.5625-.3613 2.819-1.0839 3.7695-.7227.9505-1.7318 1.4258-3.0274 1.4258-.5534 0-1.0449-.1009-1.4746-.3028-.4297-.2083-.7975-.511-1.1035-.9082v3.0567l1.3769.293v1.7187h-5.5957v-1.7187l1.377-.293V7.44531l-1.5234-.29297zm8.2031 3.65236c0-.99611-.166-1.8034-.4981-2.42189-.332-.61849-.8398-.92773-1.5234-.92773-.4297 0-.7975.08789-1.1035.26367-.2995.17578-.5371.42643-.7129.75195v4.6289c.1758.2995.4134.5274.7129.6836.306.1563.6803.2344 1.123.2344.6901 0 1.1947-.2702 1.5137-.8106.3255-.5403.4883-1.2728.4883-2.1972v-.2051zm3.623-8.32032V.765625h4.375V13.998l1.377.293V16h-5.6055v-1.709l1.377-.293V2.77734l-1.5235-.29296zm6.4942 8.13472c0-1.57548.4394-2.86454 1.3183-3.86715.8854-1.00911 2.1062-1.51367 3.6625-1.51367 1.562 0 2.783.5013 3.662 1.50391.885 1.0026 1.328 2.29492 1.328 3.87691v.2051c0 1.5886-.443 2.8841-1.328 3.8867-.879.9961-2.093 1.4942-3.643 1.4942-1.5688 0-2.7961-.4981-3.6815-1.4942-.8789-1.0026-1.3183-2.2981-1.3183-3.8867v-.2051zm2.8515.2051c0 .9636.1693 1.7383.5078 2.3242.3386.5795.8855.8692 1.6405.8692.736 0 1.273-.293 1.612-.8789.345-.586.517-1.3575.517-2.3145v-.2051c0-.93746-.172-1.70243-.517-2.29488-.346-.59245-.889-.88867-1.631-.88867-.7425 0-1.2829.29622-1.6215.88867-.3385.59245-.5078 1.35742-.5078 2.29488v.2051zm8.5743 3.4668l1.367-.293V7.44531l-1.514-.29297V5.43359h4.17l.127 1.54297c.248-.54687.567-.9733.957-1.27929.391-.30599.843-.45899 1.358-.45899.15 0 .306.01302.469.03906.169.01954.309.04558.419.07813l-.302 2.59765-1.172-.02929c-.417 0-.762.08138-1.035.24414-.274.16276-.482.39388-.625.69336V13.998l1.367.293V16h-5.586v-1.709zm13.066 1.9141c-1.523 0-2.741-.4883-3.652-1.4649-.911-.9765-1.367-2.2168-1.367-3.7207v-.3906c0-1.569.43-2.86132 1.289-3.87695.866-1.01562 2.025-1.52018 3.476-1.51367 1.426 0 2.533.42969 3.321 1.28906.788.85938 1.181 2.02149 1.181 3.48636v1.5527h-6.308l-.02.0586c.052.6966.283 1.2695.694 1.7188.416.4492.979.6738 1.689.6738.632 0 1.156-.0619 1.572-.1856.417-.1302.873-.332 1.368-.6054l.771 1.7578c-.436.345-1.003.6347-1.699.8691-.69.2344-1.462.3516-2.315.3516zm-.254-8.76955c-.527 0-.944.20182-1.25.60547-.306.40364-.494.93424-.566 1.59179l.029.04883h3.496v-.25391c0-.60546-.143-1.08724-.429-1.44531-.28-.36458-.707-.54687-1.28-.54687zm6.075 6.85545l1.367-.293V7.44531l-1.514-.29297V5.43359h4.17l.127 1.54297c.247-.54687.566-.9733.957-1.27929s.843-.45899 1.358-.45899c.149 0 .306.01302.468.03906.17.01954.31.04558.42.07813l-.303 2.59765-1.171-.02929c-.417 0-.762.08138-1.036.24414-.273.16276-.481.39388-.625.69336V13.998l1.368.293V16h-5.586v-1.709z" fill="#fff"/></svg>